<?xml version="1.0" standalone="no"?>
<!DOCTYPE svg PUBLIC "-//W3C//DTD SVG 20010904//EN"
 "http://www.w3.org/TR/2001/REC-SVG-20010904/DTD/svg10.dtd">
<svg version="1.0" xmlns="http://www.w3.org/2000/svg"
 width="212.000000pt" height="54.000000pt" viewBox="0 0 212.000000 54.000000"
 preserveAspectRatio="xMidYMid meet">
<metadata>
Created by potrace 1.16, written by Peter Selinger 2001-2019
</metadata>
<g transform="translate(0.000000,54.000000) scale(0.100000,-0.100000)"
fill="#000000" stroke="none">
<path d="M451 526 c128 -27 162 -96 83 -166 -38 -33 -108 -70 -167 -90 -35
-11 -41 -19 -100 -141 l-62 -129 957 0 958 0 0 92 c0 86 -1 90 -18 75 -62 -56
-196 -75 -246 -36 -24 19 -32 20 -65 10 -43 -12 -81 -15 -81 -4 0 3 7 15 17
25 22 24 3 23 -47 -2 -53 -27 -84 -27 -75 0 10 31 -9 24 -57 -20 -85 -80 -207
-119 -320 -101 -51 8 -68 16 -90 41 -16 17 -28 37 -28 45 0 19 -8 19 -56 -1
-53 -22 -141 -15 -164 14 -16 20 -19 20 -73 4 -32 -8 -60 -12 -63 -9 -4 4 1
18 10 31 16 25 16 26 -10 16 -14 -6 -36 -17 -47 -25 -28 -20 -67 -19 -67 0 0
14 -3 14 -30 0 -40 -21 -60 -19 -60 5 l0 20 -40 -20 c-47 -24 -70 -26 -70 -5
0 12 -7 11 -40 -6 -22 -12 -48 -18 -57 -15 -14 6 -13 10 8 33 24 26 24 26 1
14 -12 -7 -27 -9 -33 -6 -11 8 -2 47 15 57 17 12 138 10 131 -2 -4 -7 3 -7 20
0 31 12 49 4 41 -16 -4 -10 5 -9 34 6 47 24 95 27 87 6 -5 -12 -1 -12 30 0 40
17 66 12 57 -11 -5 -12 6 -9 47 10 30 14 59 25 66 25 23 0 24 -20 3 -50 -12
-17 -19 -30 -15 -30 15 0 45 22 45 33 0 7 18 30 39 51 32 32 49 40 89 44 55 5
85 -15 80 -52 -2 -17 -19 -26 -81 -47 -43 -14 -79 -29 -80 -34 -1 -5 10 -16
24 -24 24 -14 31 -13 69 4 66 30 90 53 90 86 0 43 22 80 79 131 86 78 194 115
295 102 104 -13 141 -59 134 -167 -3 -58 -2 -67 12 -61 8 4 30 9 49 12 32 4
34 3 27 -22 l-7 -27 40 21 c39 19 101 27 101 13 0 -4 -12 -19 -26 -34 l-25
-26 23 4 c13 2 31 17 39 32 52 90 209 125 209 46 0 -30 -8 -35 -95 -61 -75
-23 -89 -42 -43 -58 23 -8 39 -4 98 27 39 20 78 37 85 37 13 0 15 28 15 170
l0 170 -862 -1 c-700 -1 -852 -3 -807 -13z"/>
<path d="M188 491 c-66 -22 -124 -56 -138 -80 -9 -19 20 -81 39 -81 5 0 16 -6
23 -14 12 -11 30 -5 119 46 57 33 113 69 125 79 22 20 64 26 64 9 0 -6 -16
-42 -36 -81 -19 -39 -33 -73 -31 -75 7 -8 102 48 135 79 77 74 18 128 -148
134 -73 2 -108 -1 -152 -16z"/>
<path d="M1323 405 c-108 -54 -184 -148 -156 -194 31 -51 166 -67 302 -36 76
18 94 37 106 115 7 50 -5 93 -37 128 -18 18 -32 22 -83 22 -51 0 -75 -6 -132
-35z"/>
<path d="M0 176 l0 -176 80 0 c65 0 80 3 80 15 0 9 24 64 54 123 l54 107 -60
0 c-50 0 -63 4 -78 23 -10 12 -27 22 -39 22 -11 0 -36 14 -56 31 l-35 31 0
-176z"/>
<path d="M1150 152 c0 -9 9 -31 20 -49 37 -61 131 -63 249 -4 33 17 62 34 64
38 3 5 -51 6 -119 4 -93 -2 -135 1 -169 12 -42 15 -45 15 -45 -1z"/>
</g>
</svg>
